<?xml version="1.0"?>
<svg xmlns="http://www.w3.org/2000/svg" class="hovered-paths" id="Capa_1" viewBox="0 0 512 512" width="512px" height="512px" enable-background="new 0 0 512 512"><g><g><path class="" style="fill:#FFFFFF" fill="#fbbd00" d="m 120 256 c 0 -25.367 6.989 -49.13 19.131 -69.477 v -86.308 h -86.308 c -34.255 44.488 -52.823 98.707 -52.823 155.785 s 18.568 111.297 52.823 155.785 h 86.308 v -86.308 c -12.142 -20.347 -19.131 -44.11 -19.131 -69.477 Z" data-original="#FBBD00" data-old_color="#fbbd00"/><path class="" style="fill:#FFFFFF" fill="#0f9d58" d="m 256 392 l -60 60 l 60 60 c 57.079 0 111.297 -18.568 155.785 -52.823 v -86.216 h -86.216 c -20.525 12.186 -44.388 19.039 -69.569 19.039 Z" data-original="#0F9D58" data-old_color="#0f9d58"/><path class="" style="fill:#FFFFFF" fill="#31aa52" d="m 139.131 325.477 l -86.308 86.308 c 6.782 8.808 14.167 17.243 22.158 25.235 c 48.352 48.351 112.639 74.98 181.019 74.98 v -120 c -49.624 0 -93.117 -26.72 -116.869 -66.523 Z" data-original="#31AA52" data-old_color="#31aa52"/><path class="" style="fill:#FFFFFF" fill="#3c79e6" d="m 512 256 c 0 -15.575 -1.41 -31.179 -4.192 -46.377 l -2.251 -12.299 h -249.557 v 120 h 121.452 c -11.794 23.461 -29.928 42.602 -51.884 55.638 l 86.216 86.216 c 8.808 -6.782 17.243 -14.167 25.235 -22.158 c 48.352 -48.353 74.981 -112.64 74.981 -181.02 Z" data-original="#3C79E6" data-old_color="#3c79e6"/><path class="hovered-path active-path" style="fill:#FFFFFF" fill="#cf2d48" d="m 352.167 159.833 l 10.606 10.606 l 84.853 -84.852 l -10.606 -10.606 c -48.352 -48.352 -112.639 -74.981 -181.02 -74.981 l -60 60 l 60 60 c 36.326 0 70.479 14.146 96.167 39.833 Z" data-original="#CF2D48" data-old_color="#cf2d48"/><path class="" style="fill:#FFFFFF" fill="#eb4132" d="m 256 120 v -120 c -68.38 0 -132.667 26.629 -181.02 74.98 c -7.991 7.991 -15.376 16.426 -22.158 25.235 l 86.308 86.308 c 23.753 -39.803 67.246 -66.523 116.87 -66.523 Z" data-original="#EB4132" data-old_color="#eb4132"/></g></g> </svg>
